PathFileType	4	(X/Y/Z)	C:/Users/opensim2020/Desktop/walking_exp_matlab/subject02_walking08_straight_01.trc	
DataRate	CameraRate	NumFrames	NumMarkers	Units	OrigDataRate	OrigDataStartFrame	OrigNumFrames	
100.00	100.00	5	41	mm	100.00	842	324	
Frame#	Time	LFHD			RFHD			LBHD			RBHD			C7			T10			CLAV			STRN			RBAK			LSHO			LUPA			LELB			LFRM			LWRA			LWRB			LFIN			RSHO			RUPA			RELB			RFRM			RWRA			RWRB			RFIN			LASI			RASI			LPSI			RPSI			LTHI			LKNE			LTIB			LANK			LHEE			LTOE			RTHI			RKNE			RTIB			RANK			RHEE			RTOE			*39			*40			
		X1	Y1	Z1	X2	Y2	Z2	X3	Y3	Z3	X4	Y4	Z4	X5	Y5	Z5	X6	Y6	Z6	X7	Y7	Z7	X8	Y8	Z8	X9	Y9	Z9	X10	Y10	Z10	X11	Y11	Z11	X12	Y12	Z12	X13	Y13	Z13	X14	Y14	Z14	X15	Y15	Z15	X16	Y16	Z16	X17	Y17	Z17	X18	Y18	Z18	X19	Y19	Z19	X20	Y20	Z20	X21	Y21	Z21	X22	Y22	Z22	X23	Y23	Z23	X24	Y24	Z24	X25	Y25	Z25	X26	Y26	Z26	X27	Y27	Z27	X28	Y28	Z28	X29	Y29	Z29	X30	Y30	Z30	X31	Y31	Z31	X32	Y32	Z32	X33	Y33	Z33	X34	Y34	Z34	X35	Y35	Z35	X36	Y36	Z36	X37	Y37	Z37	X38	Y38	Z38	X39	Y39	Z39	X40	Y40	Z40	X41	Y41	Z41	

284	2.830	-1060.60510	868.65570	1719.17529	-926.54810	821.81897	1689.30139	-1117.45227	742.12836	1659.75159	-988.48993	683.74756	1630.28101	-1050.64294	650.05353	1515.34009	-1042.46411	595.81750	1234.40308	-1067.62598	785.41321	1441.43970	-1068.52979	837.07416	1270.76819	-988.31464	592.29498	1336.13452	-1234.06677	714.64081	1491.56958	-1315.71411	712.76984	1288.46777	-1326.61548	731.27002	1145.85327	-1327.36206	781.45099	1021.57129	-1285.46375	874.39764	927.59821	-1317.05591	830.90900	909.66541	-1318.14734	872.85291	859.16919	-867.29126	732.60358	1467.93945	-789.50940	699.39673	1275.65576	-775.69397	707.88483	1129.07532	-758.68909	736.29596	1012.17542	-779.10461	786.67017	886.63501	-747.87183	738.97571	882.25391	-746.08160	776.33228	819.50745	-1203.07727	817.87329	969.54437	-947.04083	856.29279	973.75073	-1089.76184	622.35516	1015.39056	-974.62988	631.59778	1019.46252	-1243.63501	689.07483	671.14648	-1218.10693	619.86963	484.52744	-1212.60193	485.05862	344.69720	-1184.30164	387.54239	140.17369	-1130.33997	350.44247	131.72569	-1196.79260	508.62534	35.07143	-859.72821	846.88385	675.58093	-903.03680	901.49921	475.13983	-895.31482	895.85431	286.25613	-930.20129	907.38544	94.48273	-987.25293	878.73096	42.26128	-914.88287	1061.92139	46.45521	-999.69092	748.92151	1787.64368	-3360.38794	2845.14380	1033.99231 
285	2.840	-1056.59802	877.42285	1720.16760	-922.98657	829.40094	1690.22437	-1114.75964	751.36920	1660.94092	-986.59424	691.98383	1631.17004	-1048.60303	658.53400	1516.27991	-1040.15967	604.79156	1235.18787	-1065.19275	793.86371	1442.85803	-1065.99060	845.93781	1272.25830	-985.97028	601.01654	1336.98132	-1231.62000	722.97919	1493.08228	-1312.86133	718.99042	1289.74207	-1322.99231	735.17438	1146.94775	-1324.36646	782.04620	1021.53839	-1283.52380	872.97876	924.79614	-1314.73047	828.62708	908.18793	-1316.24841	869.13745	856.48523	-865.01453	740.85156	1469.41406	-786.79248	708.64227	1277.23120	-773.33099	717.14618	1130.56177	-756.05701	745.15308	1013.67609	-776.24396	794.72955	887.72351	-744.65552	747.36572	883.84845	-743.44012	784.34753	820.73083	-1199.01013	828.12140	970.56873	-943.36115	865.35504	975.99652	-1087.85718	631.96405	1016.28918	-972.55408	640.55487	1020.19641	-1241.99438	700.37341	671.58765	-1218.66089	633.52222	485.39224	-1212.21301	495.72180	348.79559	-1184.46960	393.81320	146.58141	-1129.81213	357.94214	139.44244	-1196.89124	508.96893	35.19374	-858.17609	856.91461	676.26788	-902.42035	907.30396	474.98090	-895.22314	899.01141	286.31277	-930.50916	908.26953	94.50706	-987.35950	878.95923	42.36466	-915.24152	1062.74658	45.58603	-996.72156	757.20245	1788.70898	-3357.42407	2845.72705	1034.17285 
286	2.850	-1052.61694	886.03577	1721.25391	-919.28308	836.77954	1691.16272	-1112.17749	760.52563	1662.29919	-984.53754	699.79626	1632.30896	-1046.28918	666.79211	1517.52844	-1037.84998	613.74243	1236.06750	-1062.80579	802.20404	1444.31873	-1063.44897	854.78607	1273.89612	-983.66003	609.72565	1337.96130	-1229.19092	731.27155	1494.55200	-1310.10059	725.27332	1291.14172	-1319.38477	739.10211	1148.14563	-1321.53723	782.61060	1021.62067	-1281.66870	871.16370	922.22235	-1312.52588	826.16089	906.98761	-1314.37280	865.01581	853.98419	-862.74512	748.93835	1470.94824	-784.17749	717.67706	1278.70410	-770.89301	726.43494	1132.16382	-753.49268	753.92657	1015.21265	-773.33435	803.01782	888.97437	-741.69189	755.77997	885.27136	-740.38849	792.31836	822.01978	-1194.75928	838.18835	971.70288	-939.65057	874.31281	978.05420	-1085.77002	641.27136	1017.26599	-970.32300	649.48187	1020.96021	-1240.52747	711.96729	671.98419	-1219.29016	647.94543	485.80438	-1211.97461	507.61316	352.78928	-1184.34412	401.34027	153.00276	-1128.91162	366.36414	147.51512	-1196.65149	509.67807	35.42624	-856.41785	865.81335	677.05713	-901.43896	912.56561	474.88934	-895.07489	902.06146	286.23099	-930.71753	909.46332	94.63093	-987.25922	879.24939	42.50284	-916.04138	1063.74060	45.04367	-993.74438	765.37286	1789.72742	-3357.44287	2845.83057	1034.18335 
287	2.860	-1048.68970	894.35339	1722.33521	-916.09308	844.08447	1692.05652	-1109.66724	769.53265	1663.67932	-982.73059	707.51062	1633.71399	-1043.99683	674.83148	1518.70105	-1035.46655	622.57922	1237.00732	-1060.38892	810.42407	1445.85352	-1060.85461	863.41669	1275.50940	-981.42712	618.35974	1338.85107	-1226.73792	739.36371	1495.92371	-1307.43665	731.77399	1292.61963	-1315.82263	743.10034	1149.42664	-1318.92944	783.12024	1022.07581	-1279.94324	869.26550	919.77704	-1310.42358	823.52863	906.01025	-1312.58752	860.69122	851.72040	-860.56036	756.86987	1472.65002	-781.62915	726.66986	1280.30701	-768.46051	735.70197	1133.83691	-750.90790	762.86133	1016.75574	-770.48804	811.61829	890.50757	-738.57281	764.53229	887.11804	-737.29425	800.54865	823.54413	-1190.50928	847.99377	973.00958	-936.05591	883.06824	979.91553	-1083.49988	650.28058	1018.31567	-968.00647	658.32562	1021.90125	-1238.99377	723.84399	672.13171	-1219.97876	663.19843	485.98294	-1211.97314	521.13367	356.18936	-1184.01172	410.10773	159.45708	-1127.92883	376.37756	155.57132	-1196.21716	510.65863	35.69863	-854.66962	874.24719	677.87042	-900.38849	917.34174	474.72287	-894.86688	904.86169	286.06720	-931.01447	909.96448	94.46287	-987.31128	879.43646	42.61004	-916.67169	1064.64709	44.83409	-990.89825	773.23468	1790.97070	-3357.42944	2845.82324	1034.22119 
288	2.870	-1044.39661	902.81750	1723.48669	-912.67139	851.14764	1693.18616	-1107.21338	778.36047	1665.01880	-980.63477	715.39929	1634.83557	-1041.83948	682.74597	1519.91504	-1033.11108	630.88934	1238.01135	-1058.12866	818.74677	1447.39832	-1058.35986	872.18048	1277.14392	-979.15698	626.93555	1339.63379	-1224.31213	747.45325	1497.33655	-1304.89709	738.28564	1294.11743	-1312.39331	747.15906	1150.77161	-1316.09460	783.52985	1022.35394	-1278.26038	867.15155	917.44275	-1308.50061	820.85651	905.25531	-1310.85974	856.11426	849.62830	-858.32495	764.72980	1474.29077	-779.10699	735.32104	1282.01453	-766.05206	744.86188	1135.53857	-748.17090	771.86060	1018.47394	-767.53485	820.62720	892.17596	-735.79163	772.92749	888.80920	-734.18494	809.17407	825.16510	-1186.36145	857.49988	974.36603	-932.70459	891.69244	981.45288	-1081.19177	658.91956	1019.53802	-965.53717	667.15521	1022.93134	-1237.59094	736.02789	672.07098	-1220.55408	679.17303	485.90195	-1211.97144	535.55292	359.24023	-1183.69482	419.96335	165.82635	-1127.07959	387.53851	163.77216	-1195.60071	512.02228	36.15034	-853.15363	881.73956	678.51227	-899.44763	922.01306	474.73111	-894.15942	907.26825	285.96082	-931.01483	910.58978	94.56615	-987.25690	879.42206	42.64780	-916.99469	1064.99292	44.41306	-988.29492	781.01190	1791.97644	-3360.37085	2845.12134	1034.03394 
